<svg id="Layer_1" data-name="Layer 1" xmlns="http://www.w3.org/2000/svg" viewBox="0 0 24 24"><defs><style>.cls-1{fill:#29584a;}.cls-2{fill:#fffbe6;}.cls-3{fill:none;}</style></defs><rect class="cls-1" x="3.98" y="8.5" width="13.04" height="2" transform="translate(0.22 19.24) rotate(-85.58)"/><rect class="cls-1" x="8.9" y="8" width="10.2" height="2" transform="translate(2.43 20.96) rotate(-78.68)"/><rect class="cls-1" x="9.9" y="10" width="10.2" height="2" transform="translate(1.27 23.55) rotate(-78.68)"/><rect class="cls-1" x="6" y="3.92" width="2" height="12.17" transform="translate(-1.55 1.29) rotate(-9.46)"/><rect class="cls-1" x="7.5" y="4.98" width="2" height="11.05" transform="translate(-0.92 0.81) rotate(-5.19)"/><rect class="cls-1" x="12.39" y="7.5" width="9.22" height="2" transform="translate(5.02 23.25) rotate(-77.48)"/><rect class="cls-1" x="11.5" y="4.98" width="2" height="10.05" transform="translate(-0.93 1.29) rotate(-5.71)"/><rect class="cls-1" x="11" y="9" width="1" height="4"/><path class="cls-2" d="M16,8A4,4,0,0,1,8,8H5L7,22H17L19,8Z"/><rect class="cls-3" width="24" height="24"/></svg>