<svg id="Layer_1" data-name="Layer 1" xmlns="http://www.w3.org/2000/svg" viewBox="0 0 24 24"><defs><style>.cls-1{fill:#fffbe6;}.cls-2{fill:#29584a;}.cls-3{fill:none;}</style></defs><path class="cls-1" d="M2,17v3a2,2,0,0,0,2,2H20a2,2,0,0,0,2-2V17Z"/><path class="cls-1" d="M2.13,9H22A10.55,10.55,0,0,0,2.13,9Z"/><path class="cls-2" d="M19.26,10H18l-3,3-3-3H4.74A2.74,2.74,0,0,0,2,12.74v.52A2.74,2.74,0,0,0,4.74,16H19.26A2.74,2.74,0,0,0,22,13.26v-.52A2.74,2.74,0,0,0,19.26,10Z"/><rect class="cls-3" width="24" height="24"/></svg>