<svg id="Layer_1" data-name="Layer 1" xmlns="http://www.w3.org/2000/svg" viewBox="0 0 24 24"><defs><style>.cls-1{fill:#fffbe6;}.cls-2{fill:#29584a;}.cls-3{fill:none;}</style></defs><path class="cls-1" d="M2,19H22a0,0,0,0,1,0,0v0a3,3,0,0,1-3,3H5a3,3,0,0,1-3-3v0A0,0,0,0,1,2,19Z"/><path class="cls-2" d="M14.5,13.5A5.5,5.5,0,0,0,9,19H20A5.5,5.5,0,0,0,14.5,13.5Z"/><path class="cls-2" d="M8,15a4,4,0,0,0-4,4h8A4,4,0,0,0,8,15Z"/><rect class="cls-2" x="7" y="5" width="1" height="11"/><rect class="cls-1" x="2" y="3" width="6" height="1"/><rect class="cls-1" x="2" y="5" width="6" height="1"/><rect class="cls-1" x="9" y="5" width="13" height="1"/><rect class="cls-1" x="2" y="7" width="6" height="1"/><path class="cls-1" d="M8,3V8A2.5,2.5,0,0,0,8,3Z"/><rect class="cls-2" x="5" y="5" width="1" height="14"/><rect class="cls-3" width="24" height="24"/></svg>