<svg id="Layer_1" data-name="Layer 1" xmlns="http://www.w3.org/2000/svg" viewBox="0 0 24 24"><defs><style>.cls-1{fill:#fffbe6;}.cls-2{fill:#29584a;}.cls-3{fill:none;}</style></defs><path class="cls-1" d="M12.63,2.88,2.88,12.64a3,3,0,0,0,0,4.24h0l14-14h0A3,3,0,0,0,12.63,2.88Z"/><path class="cls-1" d="M11.36,21.12l9.76-9.75a3,3,0,0,0,0-4.25h0l-14,14h0A3,3,0,0,0,11.36,21.12Z"/><path class="cls-2" d="M16.88,4.3,14.76,6.42V9.24H11.93L4.29,16.88a2,2,0,1,0,2.83,2.83L19.7,7.12A2,2,0,0,0,16.88,4.3Z"/><rect class="cls-3" width="24" height="24"/></svg>